# xmcd
#
# Track frame offsets: 
#        150
#        11039
#        23805
#        35555
#        47823
#        60591
#        73043
#        87625
#        101686
#        112552
#        124521
#        136829
#        151603
#        164378
#        175291
#        187536
#
# Disc length: 2642 seconds
#
# Revision: 1
# Processed by: cddbd v1.5.2PL0 Copyright (c) Steve Scherf et al.
# Submitted via: ExactAudioCopy v1.0b3
#
DISCID=c20a5010
DTITLE=Autry, Gene - Back In The Saddle Again
DYEAR=2004
DGENRE=Country
TTITLE0=You Are My Sunshine
TTITLE1=Be Honest With Me
TTITLE2=Back In The Saddle Again
TTITLE3=It Makes No Difference Now
TTITLE4=South Of The Border (Down Mexico Way)
TTITLE5=Have I Told You Lately That I Love You
TTITLE6=The Last Round Up
TTITLE7=Mexicali Rose
TTITLE8=Red River Valley
TTITLE9=(I Got Spurs That) Jingle, Jangle, Jingle
TTITLE10=Deep In The Heart Of Texas
TTITLE11=Tumbling Tumbleweeds
TTITLE12=That Silver Haired Daddy Of Mine
TTITLE13=Dust
TTITLE14=I'll Never Let You Go
TTITLE15=I'm Thinking Tonight Of My Blue Eyes
EXTD=
EXTT0=
EXTT1=
EXTT2=
EXTT3=
EXTT4=
EXTT5=
EXTT6=
EXTT7=
EXTT8=
EXTT9=
EXTT10=
EXTT11=
EXTT12=
EXTT13=
EXTT14=
EXTT15=
PLAYORDER=
